<svg width="18" height="19" viewBox="0 0 18 19" fill="none" xmlns="http://www.w3.org/2000/svg">
<path d="M13.245 14.0072L12.45 14.8022L11.9175 14.2697L12.7125 13.4747L11.2575 12.0197L10.4625 12.8147L9.93 12.2822L10.725 11.4872L9.27 10.0322L8.475 10.8272L7.9425 10.2947L8.7375 9.49971L7.275 8.03721L6.48 8.83221L5.9475 8.29971L6.7425 7.50471L5.2875 6.04971L4.4925 6.84471L3.96 6.31221L4.755 5.51721L3 3.76221V14.2622C3 15.0872 3.675 15.7622 4.5 15.7622H15L13.245 14.0072ZM5.25 13.5122V9.19221L9.57 13.5122H5.25Z" fill="#A8AEE5"/>
</svg>
