<svg width="18" height="19" viewBox="0 0 18 19" fill="none" xmlns="http://www.w3.org/2000/svg">
<path d="M16.5 9.76221C16.5 8.93721 15.825 8.26221 15 8.26221V6.01221C15 5.18721 14.325 4.51221 13.5 4.51221H4.5C3.675 4.51221 3 5.18721 3 6.01221V8.26221C2.175 8.26221 1.5 8.93721 1.5 9.76221V13.5122H2.4975L3 15.0122H3.75L4.2525 13.5122H13.755L14.25 15.0122H15L15.5025 13.5122H16.5V9.76221ZM13.5 8.26221H9.75V6.01221H13.5V8.26221ZM4.5 6.01221H8.25V8.26221H4.5V6.01221ZM3 9.76221H15V12.0122H3V9.76221Z" fill="#A8AEE5"/>
</svg>
