<svg width="18" height="19" viewBox="0 0 18 19" fill="none" xmlns="http://www.w3.org/2000/svg">
<path d="M5.25 7.51221C6.07843 7.51221 6.75 6.84063 6.75 6.01221C6.75 5.18378 6.07843 4.51221 5.25 4.51221C4.42157 4.51221 3.75 5.18378 3.75 6.01221C3.75 6.84063 4.42157 7.51221 5.25 7.51221Z" fill="#A8AEE5"/>
<path d="M15 10.5122V4.38471C15 3.21471 14.0475 2.26221 12.8775 2.26221C12.315 2.26221 11.775 2.48721 11.3775 2.88471L10.44 3.82221C10.32 3.78471 10.1925 3.76221 10.0575 3.76221C9.7575 3.76221 9.48 3.85221 9.2475 4.00221L11.3175 6.07221C11.4675 5.83971 11.5575 5.56221 11.5575 5.26221C11.5575 5.12721 11.535 5.00721 11.505 4.87971L12.4425 3.94221C12.555 3.82971 12.7125 3.76221 12.8775 3.76221C13.2225 3.76221 13.5 4.03971 13.5 4.38471V10.5122H8.3625C8.1375 10.3547 7.935 10.1747 7.7475 9.97221L6.6975 8.80971C6.555 8.65221 6.375 8.52471 6.18 8.43471C5.9475 8.32221 5.6925 8.26221 5.43 8.26221C4.5 8.26971 3.75 9.01971 3.75 9.94971V10.5122H1.5V15.0122C1.5 15.8372 2.175 16.5122 3 16.5122C3 16.9247 3.3375 17.2622 3.75 17.2622H14.25C14.6625 17.2622 15 16.9247 15 16.5122C15.825 16.5122 16.5 15.8372 16.5 15.0122V10.5122H15ZM15 15.0122H3V12.0122H15V15.0122Z" fill="#A8AEE5"/>
</svg>
