<svg width="32" height="24" viewBox="0 0 32 24" fill="none" xmlns="http://www.w3.org/2000/svg">
<path d="M10.7685 0H17.1762L14.6041 7.18777C10.0771 7.98329 6.61466 12.3632 6.61466 17.647C6.61466 20.0307 7.31932 22.2304 8.50839 24H0L7.77832 2.26299C8.26736 0.896223 9.45159 0 10.7685 0Z" fill="#3376F8"/>
<path d="M17.1761 0L15.3684 5.05156L14.8238 0H17.1761Z" fill="#3376F8"/>
<path d="M21.2315 0H14.8238L17.385 7.15744C22.0021 7.86487 25.5589 12.2916 25.5589 17.647C25.5589 20.0307 24.8543 22.2304 23.6652 24H32L24.2217 2.263C23.7326 0.896223 22.5484 0 21.2315 0Z" fill="#3376F8" fill-opacity="0.64"/>
<path d="M9.62566 23.3081C8.53065 21.7487 7.87769 19.7831 7.87769 17.6469C7.87769 12.5788 11.5531 8.47046 16.0868 8.47046C20.6207 8.47046 24.2961 12.5788 24.2961 17.6469C24.2961 19.7831 23.6431 21.7487 22.5481 23.3081C20.7505 21.9699 18.5126 21.1763 16.0868 21.1763C13.6611 21.1763 11.4233 21.9699 9.62566 23.3081Z" fill="#3376F8" fill-opacity="0.32"/>
</svg>
