<svg width="25" height="24" viewBox="0 0 25 24" fill="none" xmlns="http://www.w3.org/2000/svg">
<path opacity="0.4" d="M10.57 2.81998L3.64002 8.36997C2.86002 8.98997 2.36002 10.3 2.53002 11.28L3.86002 19.24C4.10002 20.66 5.46002 21.81 6.90002 21.81H18.1C19.53 21.81 20.9 20.65 21.14 19.24L22.47 11.28C22.63 10.3 22.13 8.98997 21.36 8.36997L14.43 2.82996C13.36 1.96996 11.63 1.96998 10.57 2.81998Z" fill="#429BF4"/>
<path d="M12.5 15.5C13.8807 15.5 15 14.3807 15 13C15 11.6193 13.8807 10.5 12.5 10.5C11.1193 10.5 10 11.6193 10 13C10 14.3807 11.1193 15.5 12.5 15.5Z" fill="#429BF4"/>
</svg>
