<svg width="131" height="25" viewBox="0 0 131 25" fill="none" xmlns="http://www.w3.org/2000/svg">
<path d="M10.7685 0H17.1762L14.6041 7.18777C10.0771 7.98329 6.61466 12.3632 6.61466 17.647C6.61466 20.0307 7.31932 22.2304 8.50839 24H0L7.77832 2.26299C8.26736 0.896223 9.45159 0 10.7685 0Z" fill="#3376F8"/>
<path d="M17.1761 0L15.3684 5.05156L14.8238 0H17.1761Z" fill="#3376F8"/>
<path d="M21.2315 0H14.8238L17.385 7.15744C22.0021 7.86487 25.5589 12.2916 25.5589 17.647C25.5589 20.0307 24.8543 22.2304 23.6652 24H32L24.2217 2.263C23.7326 0.896223 22.5484 0 21.2315 0Z" fill="#3376F8" fill-opacity="0.64"/>
<path d="M9.62566 23.3081C8.53065 21.7487 7.87769 19.7831 7.87769 17.6469C7.87769 12.5788 11.5531 8.47046 16.0868 8.47046C20.6207 8.47046 24.2961 12.5788 24.2961 17.6469C24.2961 19.7831 23.6431 21.7487 22.5481 23.3081C20.7505 21.9699 18.5126 21.1763 16.0868 21.1763C13.6611 21.1763 11.4233 21.9699 9.62566 23.3081Z" fill="#3376F8" fill-opacity="0.32"/>
<path d="M49.4399 20V5.1H54.9999C56.0133 5.1 56.9066 5.28667 57.6799 5.66C58.4666 6.02 59.0799 6.55333 59.5199 7.26C59.9599 7.95333 60.1799 8.8 60.1799 9.8C60.1799 10.7867 59.9533 11.6333 59.4999 12.34C59.0599 13.0333 58.4533 13.5667 57.6799 13.94C56.9066 14.3133 56.0133 14.5 54.9999 14.5H52.1599V20H49.4399ZM52.1599 12.1H55.0399C55.5333 12.1 55.9599 12.0067 56.3199 11.82C56.6799 11.62 56.9599 11.3467 57.1599 11C57.3599 10.6533 57.4599 10.2533 57.4599 9.8C57.4599 9.33333 57.3599 8.93333 57.1599 8.6C56.9599 8.25333 56.6799 7.98667 56.3199 7.8C55.9599 7.6 55.5333 7.5 55.0399 7.5H52.1599V12.1ZM61.1887 20V9.12H63.6487V11.54L63.4487 11.18C63.702 10.3667 64.0954 9.8 64.6287 9.48C65.1754 9.16 65.8287 9 66.5887 9H67.2287V11.32H66.2887C65.542 11.32 64.942 11.5533 64.4887 12.02C64.0354 12.4733 63.8087 13.1133 63.8087 13.94V20H61.1887ZM72.9892 20.24C71.9225 20.24 70.9492 19.9933 70.0692 19.5C69.2025 19.0067 68.5092 18.3333 67.9892 17.48C67.4825 16.6267 67.2292 15.6533 67.2292 14.56C67.2292 13.4667 67.4825 12.4933 67.9892 11.64C68.5092 10.7867 69.2025 10.1133 70.0692 9.62C70.9358 9.12667 71.9092 8.88 72.9892 8.88C74.0558 8.88 75.0225 9.12667 75.8892 9.62C76.7558 10.1133 77.4425 10.7867 77.9492 11.64C78.4692 12.48 78.7292 13.4533 78.7292 14.56C78.7292 15.6533 78.4692 16.6267 77.9492 17.48C77.4292 18.3333 76.7358 19.0067 75.8692 19.5C75.0025 19.9933 74.0425 20.24 72.9892 20.24ZM72.9892 17.84C73.5758 17.84 74.0892 17.7 74.5292 17.42C74.9825 17.14 75.3358 16.7533 75.5892 16.26C75.8558 15.7533 75.9892 15.1867 75.9892 14.56C75.9892 13.92 75.8558 13.36 75.5892 12.88C75.3358 12.3867 74.9825 12 74.5292 11.72C74.0892 11.4267 73.5758 11.28 72.9892 11.28C72.3892 11.28 71.8625 11.4267 71.4092 11.72C70.9558 12 70.5958 12.3867 70.3292 12.88C70.0758 13.36 69.9492 13.92 69.9492 14.56C69.9492 15.1867 70.0758 15.7533 70.3292 16.26C70.5958 16.7533 70.9558 17.14 71.4092 17.42C71.8625 17.7 72.3892 17.84 72.9892 17.84ZM79.716 24V9.12H82.176V11.28L81.936 10.74C82.3094 10.1533 82.816 9.7 83.456 9.38C84.096 9.04667 84.836 8.88 85.676 8.88C86.7027 8.88 87.6294 9.13333 88.456 9.64C89.2827 10.1467 89.936 10.8267 90.416 11.68C90.9094 12.5333 91.156 13.4933 91.156 14.56C91.156 15.6133 90.916 16.5733 90.436 17.44C89.956 18.3067 89.3027 18.9933 88.476 19.5C87.6494 19.9933 86.7094 20.24 85.656 20.24C84.8694 20.24 84.1427 20.0867 83.476 19.78C82.8227 19.46 82.3027 19.0067 81.916 18.42L82.336 17.9V24H79.716ZM85.356 17.84C85.956 17.84 86.4894 17.7 86.956 17.42C87.4227 17.14 87.7827 16.7533 88.036 16.26C88.3027 15.7667 88.436 15.2 88.436 14.56C88.436 13.92 88.3027 13.36 88.036 12.88C87.7827 12.3867 87.4227 12 86.956 11.72C86.4894 11.4267 85.956 11.28 85.356 11.28C84.7827 11.28 84.2627 11.42 83.796 11.7C83.3427 11.98 82.9827 12.3733 82.716 12.88C82.4627 13.3733 82.336 13.9333 82.336 14.56C82.336 15.2 82.4627 15.7667 82.716 16.26C82.9827 16.7533 83.3427 17.14 83.796 17.42C84.2627 17.7 84.7827 17.84 85.356 17.84ZM97.3135 20.24C96.1935 20.24 95.2135 19.9867 94.3735 19.48C93.5335 18.9733 92.8802 18.2867 92.4135 17.42C91.9469 16.5533 91.7135 15.5933 91.7135 14.54C91.7135 13.4467 91.9469 12.48 92.4135 11.64C92.8935 10.7867 93.5402 10.1133 94.3535 9.62C95.1802 9.12667 96.1002 8.88 97.1135 8.88C97.9669 8.88 98.7135 9.02 99.3535 9.3C100.007 9.58 100.56 9.96667 101.014 10.46C101.467 10.9533 101.814 11.52 102.054 12.16C102.294 12.7867 102.414 13.4667 102.414 14.2C102.414 14.3867 102.4 14.58 102.374 14.78C102.36 14.98 102.327 15.1533 102.274 15.3H93.8735V13.3H100.794L99.5535 14.24C99.6735 13.6267 99.6402 13.08 99.4535 12.6C99.2802 12.12 98.9869 11.74 98.5735 11.46C98.1735 11.18 97.6869 11.04 97.1135 11.04C96.5669 11.04 96.0802 11.18 95.6535 11.46C95.2269 11.7267 94.9002 12.1267 94.6735 12.66C94.4602 13.18 94.3802 13.8133 94.4335 14.56C94.3802 15.2267 94.4669 15.82 94.6935 16.34C94.9335 16.8467 95.2802 17.24 95.7335 17.52C96.2002 17.8 96.7335 17.94 97.3335 17.94C97.9335 17.94 98.4402 17.8133 98.8535 17.56C99.2802 17.3067 99.6135 16.9667 99.8535 16.54L101.974 17.58C101.76 18.1 101.427 18.56 100.974 18.96C100.52 19.36 99.9802 19.6733 99.3535 19.9C98.7402 20.1267 98.0602 20.24 97.3135 20.24ZM103.4 20V9.12H105.86V11.54L105.66 11.18C105.913 10.3667 106.306 9.8 106.84 9.48C107.386 9.16 108.04 9 108.8 9H109.44V11.32H108.5C107.753 11.32 107.153 11.5533 106.7 12.02C106.246 12.4733 106.02 13.1133 106.02 13.94V20H103.4ZM109.88 20V4.86H112.5V20H109.88ZM115.239 24.4C114.946 24.4 114.659 24.3733 114.379 24.32C114.099 24.28 113.846 24.2 113.619 24.08V21.9C113.792 21.94 113.999 21.98 114.239 22.02C114.492 22.06 114.726 22.08 114.939 22.08C115.539 22.08 115.972 21.94 116.239 21.66C116.519 21.3933 116.766 21.0333 116.979 20.58L117.699 18.9L117.659 21.1L112.919 9.12H115.739L119.059 17.96H118.059L121.359 9.12H124.199L119.459 21.1C119.179 21.7933 118.839 22.3867 118.439 22.88C118.039 23.3733 117.572 23.7467 117.039 24C116.519 24.2667 115.919 24.4 115.239 24.4ZM125.077 20V17.2H127.717V20H125.077Z" fill="#161616"/>
</svg>
