<svg width="16" height="16" viewBox="0 0 16 16" fill="none" xmlns="http://www.w3.org/2000/svg">
<path opacity="0.4" d="M7.9931 1.91669H7.99994C10.0333 1.91669 12.2671 3.06555 12.954 5.55438L13.0156 5.7995C13.6599 8.64205 12.0798 11.1465 10.3427 12.9265L9.9931 13.2731L9.99115 13.2751C9.43647 13.8139 8.71904 14.0837 7.99994 14.0837C7.37127 14.0837 6.74217 13.8779 6.21771 13.4636L5.99994 13.2731C4.19316 11.5358 2.4057 8.99033 2.92084 6.07587L2.97845 5.79266C3.5824 3.13603 5.89894 1.91678 7.9931 1.91669Z" fill="#667085" stroke="#667085" stroke-width="1.5"/>
<path d="M7.9996 5.52332C8.74506 5.52332 9.34998 6.12752 9.35019 6.87292C9.35019 7.61851 8.74519 8.22351 7.9996 8.22351C7.2542 8.2233 6.64999 7.61838 6.64999 6.87292C6.65021 6.12765 7.25433 5.52353 7.9996 5.52332Z" fill="#667085" stroke="#667085" stroke-width="1.5"/>
</svg>
